<svg width="26" height="26" viewBox="0 0 26 26" fill="none" xmlns="http://www.w3.org/2000/svg">
<path fill-rule="evenodd" clip-rule="evenodd" d="M12.9996 23.4C18.7434 23.4 23.3996 18.7438 23.3996 13C23.3996 7.25624 18.7434 2.60001 12.9996 2.60001C7.25585 2.60001 2.59961 7.25624 2.59961 13C2.59961 18.7438 7.25585 23.4 12.9996 23.4ZM17.8188 11.3192C18.3265 10.8116 18.3265 9.98845 17.8188 9.48077C17.3112 8.97309 16.4881 8.97309 15.9804 9.48077L11.6996 13.7615L10.0188 12.0808C9.51117 11.5731 8.68805 11.5731 8.18037 12.0808C7.67269 12.5884 7.67269 13.4116 8.18037 13.9192L10.7804 16.5192C11.2881 17.0269 12.1112 17.0269 12.6188 16.5192L17.8188 11.3192Z" fill="#0D9488"/>
</svg>
