<svg width="26" height="26" viewBox="0 0 26 26" fill="none" xmlns="http://www.w3.org/2000/svg">
<path fill-rule="evenodd" clip-rule="evenodd" d="M12.9996 23.4C18.7434 23.4 23.3996 18.7438 23.3996 13C23.3996 7.25624 18.7434 2.60001 12.9996 2.60001C7.25585 2.60001 2.59961 7.25624 2.59961 13C2.59961 18.7438 7.25585 23.4 12.9996 23.4ZM11.3188 9.48077C10.8112 8.97309 9.98805 8.97309 9.48037 9.48077C8.97269 9.98845 8.97269 10.8116 9.48037 11.3192L11.1611 13L9.48037 14.6808C8.97269 15.1884 8.97269 16.0116 9.48037 16.5192C9.98805 17.0269 10.8112 17.0269 11.3188 16.5192L12.9996 14.8385L14.6804 16.5192C15.1881 17.0269 16.0112 17.0269 16.5188 16.5192C17.0265 16.0116 17.0265 15.1884 16.5188 14.6808L14.8381 13L16.5188 11.3192C17.0265 10.8116 17.0265 9.98845 16.5188 9.48077C16.0112 8.97309 15.1881 8.97309 14.6804 9.48077L12.9996 11.1615L11.3188 9.48077Z" fill="#E11D48"/>
</svg>
